<mxfile host="app.diagrams.net" agent="Mozilla/5.0 (Windows NT 10.0; Win64; x64) AppleWebKit/537.36 (KHTML, like Gecko) Chrome/135.0.0.0 Safari/537.36 Edg/135.0.0.0" version="26.2.8">
  <diagram name="Page-1" id="2YBvvXClWsGukQMizWep">
    <mxGraphModel dx="2863" dy="1493" grid="0" gridSize="10" guides="1" tooltips="1" connect="1" arrows="1" fold="1" page="1" pageScale="1" pageWidth="1100" pageHeight="850" math="0" shadow="0">
      <root>
        <mxCell id="0" />
        <mxCell id="1" parent="0" />
        <mxCell id="TjdgruIzrFf4UxmMu6ut-187" style="edgeStyle=orthogonalEdgeStyle;rounded=0;orthogonalLoop=1;jettySize=auto;html=1;entryX=0.5;entryY=0;entryDx=0;entryDy=0;" edge="1" parent="1" source="TjdgruIzrFf4UxmMu6ut-29" target="TjdgruIzrFf4UxmMu6ut-34">
          <mxGeometry relative="1" as="geometry">
            <Array as="points">
              <mxPoint x="-225" y="-299" />
              <mxPoint x="755" y="-299" />
            </Array>
          </mxGeometry>
        </mxCell>
        <mxCell id="TjdgruIzrFf4UxmMu6ut-29" value="CongTy" style="swimlane;fontStyle=1;childLayout=stackLayout;horizontal=1;startSize=26;fillColor=light-dark(#45C4E3,#198CC4);horizontalStack=0;resizeParent=1;resizeParentMax=0;resizeLast=0;collapsible=1;marginBottom=0;whiteSpace=wrap;html=1;strokeColor=light-dark(#000000, #51afe7);swimlaneFillColor=default;fontColor=light-dark(#000000, #121212);fontFamily=Times New Roman;textShadow=0;gradientColor=none;" vertex="1" parent="1">
          <mxGeometry x="-288" y="-280" width="127" height="90" as="geometry" />
        </mxCell>
        <mxCell id="TjdgruIzrFf4UxmMu6ut-33" value="-TenCongTy&lt;br&gt;-DiaChiCty&amp;nbsp;&lt;div&gt;-MaSoThue&lt;/div&gt;&lt;div&gt;-SDTCT&lt;/div&gt;" style="text;strokeColor=light-dark(#000000, #51afe7);fillColor=light-dark(#45C4E3,#198CC4);align=left;verticalAlign=top;spacingLeft=4;spacingRight=4;overflow=hidden;rotatable=0;points=[[0,0.5],[1,0.5]];portConstraint=eastwest;whiteSpace=wrap;html=1;swimlaneFillColor=default;fontColor=light-dark(#000000, #121212);fontFamily=Times New Roman;textShadow=0;gradientColor=none;" vertex="1" parent="TjdgruIzrFf4UxmMu6ut-29">
          <mxGeometry y="26" width="127" height="64" as="geometry" />
        </mxCell>
        <mxCell id="TjdgruIzrFf4UxmMu6ut-194" style="edgeStyle=orthogonalEdgeStyle;rounded=0;orthogonalLoop=1;jettySize=auto;html=1;exitX=0.25;exitY=0;exitDx=0;exitDy=0;entryX=0;entryY=0.5;entryDx=0;entryDy=0;" edge="1" parent="1" source="TjdgruIzrFf4UxmMu6ut-34" target="TjdgruIzrFf4UxmMu6ut-101">
          <mxGeometry relative="1" as="geometry" />
        </mxCell>
        <mxCell id="TjdgruIzrFf4UxmMu6ut-195" style="edgeStyle=orthogonalEdgeStyle;rounded=0;orthogonalLoop=1;jettySize=auto;html=1;exitX=0.75;exitY=0;exitDx=0;exitDy=0;entryX=0.25;entryY=0;entryDx=0;entryDy=0;" edge="1" parent="1" source="TjdgruIzrFf4UxmMu6ut-34" target="TjdgruIzrFf4UxmMu6ut-122">
          <mxGeometry relative="1" as="geometry">
            <Array as="points">
              <mxPoint x="790" y="-298" />
              <mxPoint x="1110" y="-298" />
            </Array>
          </mxGeometry>
        </mxCell>
        <mxCell id="TjdgruIzrFf4UxmMu6ut-196" style="edgeStyle=orthogonalEdgeStyle;rounded=0;orthogonalLoop=1;jettySize=auto;html=1;exitX=0;exitY=0.25;exitDx=0;exitDy=0;entryX=0.75;entryY=0;entryDx=0;entryDy=0;" edge="1" parent="1" source="TjdgruIzrFf4UxmMu6ut-34" target="TjdgruIzrFf4UxmMu6ut-51">
          <mxGeometry relative="1" as="geometry" />
        </mxCell>
        <mxCell id="TjdgruIzrFf4UxmMu6ut-197" style="edgeStyle=orthogonalEdgeStyle;rounded=0;orthogonalLoop=1;jettySize=auto;html=1;exitX=0.25;exitY=0;exitDx=0;exitDy=0;entryX=0.75;entryY=0;entryDx=0;entryDy=0;" edge="1" parent="1" source="TjdgruIzrFf4UxmMu6ut-34" target="TjdgruIzrFf4UxmMu6ut-111">
          <mxGeometry relative="1" as="geometry">
            <Array as="points">
              <mxPoint x="700" y="-2" />
              <mxPoint x="700" y="-22" />
              <mxPoint x="219" y="-22" />
            </Array>
          </mxGeometry>
        </mxCell>
        <mxCell id="TjdgruIzrFf4UxmMu6ut-200" style="edgeStyle=orthogonalEdgeStyle;rounded=0;orthogonalLoop=1;jettySize=auto;html=1;exitX=0.75;exitY=0;exitDx=0;exitDy=0;entryX=0.988;entryY=0.145;entryDx=0;entryDy=0;entryPerimeter=0;" edge="1" parent="1" source="TjdgruIzrFf4UxmMu6ut-34" target="TjdgruIzrFf4UxmMu6ut-56">
          <mxGeometry relative="1" as="geometry">
            <Array as="points">
              <mxPoint x="774" y="-2" />
              <mxPoint x="774" y="-292" />
              <mxPoint x="149" y="-292" />
              <mxPoint x="149" y="-225" />
            </Array>
          </mxGeometry>
        </mxCell>
        <mxCell id="TjdgruIzrFf4UxmMu6ut-34" value="KeToanTSCD" style="swimlane;fontStyle=1;childLayout=stackLayout;horizontal=1;startSize=26;fillColor=light-dark(#45C4E3,#198CC4);horizontalStack=0;resizeParent=1;resizeParentMax=0;resizeLast=0;collapsible=1;marginBottom=0;whiteSpace=wrap;html=1;strokeColor=light-dark(#000000, #51afe7);swimlaneFillColor=default;fontColor=light-dark(#000000, #121212);fontFamily=Times New Roman;textShadow=0;gradientColor=none;" vertex="1" parent="1">
          <mxGeometry x="685" y="-2" width="140" height="138" as="geometry" />
        </mxCell>
        <mxCell id="TjdgruIzrFf4UxmMu6ut-38" value="-MaKT&#xa;-HoTen&#xa;-ChucVu&#xa;-Email&#xa;-SDT&#xa;-NgayLam" style="text;whiteSpace=wrap;fillColor=light-dark(#45C4E3,#198CC4);strokeColor=light-dark(#000000, #51afe7);swimlaneFillColor=default;fontColor=light-dark(#000000, #121212);fontFamily=Times New Roman;textShadow=0;gradientColor=none;" vertex="1" parent="TjdgruIzrFf4UxmMu6ut-34">
          <mxGeometry y="26" width="140" height="112" as="geometry" />
        </mxCell>
        <mxCell id="TjdgruIzrFf4UxmMu6ut-51" value="DanhMucTSCD" style="swimlane;fontStyle=1;align=center;verticalAlign=top;childLayout=stackLayout;horizontal=1;startSize=26;horizontalStack=0;resizeParent=1;resizeParentMax=0;resizeLast=0;collapsible=1;marginBottom=0;whiteSpace=wrap;html=1;fillColor=light-dark(#45C4E3,#198CC4);strokeColor=light-dark(#000000, #51afe7);swimlaneFillColor=default;fontColor=light-dark(#000000, #121212);fontFamily=Times New Roman;textShadow=0;gradientColor=none;" vertex="1" parent="1">
          <mxGeometry x="299" y="166" width="144" height="242" as="geometry" />
        </mxCell>
        <mxCell id="TjdgruIzrFf4UxmMu6ut-52" value="-MaTS&lt;div&gt;-TenTS&lt;/div&gt;&lt;div&gt;-DVT&lt;/div&gt;&lt;div&gt;-HinhThucMuaSam&lt;/div&gt;&lt;div&gt;-MoTa&lt;/div&gt;&lt;div&gt;-NgayTao&lt;/div&gt;&lt;div&gt;-SoLuong&lt;/div&gt;&lt;div&gt;-DonGia&lt;/div&gt;&lt;div&gt;-TongGiaTri&lt;/div&gt;&lt;div&gt;-TrangThai&lt;/div&gt;" style="text;strokeColor=light-dark(#000000, #51afe7);fillColor=light-dark(#45C4E3,#198CC4);align=left;verticalAlign=top;spacingLeft=4;spacingRight=4;overflow=hidden;rotatable=0;points=[[0,0.5],[1,0.5]];portConstraint=eastwest;whiteSpace=wrap;html=1;swimlaneFillColor=default;fontColor=light-dark(#000000, #121212);fontFamily=Times New Roman;textShadow=0;gradientColor=none;" vertex="1" parent="TjdgruIzrFf4UxmMu6ut-51">
          <mxGeometry y="26" width="144" height="154" as="geometry" />
        </mxCell>
        <mxCell id="TjdgruIzrFf4UxmMu6ut-54" value="+ThemTaiSan()&lt;div&gt;+XoaTaiSan()&lt;/div&gt;&lt;div&gt;+LuuTaiSan()&lt;/div&gt;" style="text;strokeColor=light-dark(#000000, #51afe7);fillColor=light-dark(#45C4E3,#198CC4);align=left;verticalAlign=top;spacingLeft=4;spacingRight=4;overflow=hidden;rotatable=0;points=[[0,0.5],[1,0.5]];portConstraint=eastwest;whiteSpace=wrap;html=1;swimlaneFillColor=default;fontColor=light-dark(#000000, #121212);fontFamily=Times New Roman;textShadow=0;gradientColor=none;" vertex="1" parent="TjdgruIzrFf4UxmMu6ut-51">
          <mxGeometry y="180" width="144" height="62" as="geometry" />
        </mxCell>
        <mxCell id="TjdgruIzrFf4UxmMu6ut-55" value="BienBanGiaoNhanTSCD" style="swimlane;fontStyle=1;align=center;verticalAlign=top;childLayout=stackLayout;horizontal=1;startSize=26;horizontalStack=0;resizeParent=1;resizeParentMax=0;resizeLast=0;collapsible=1;marginBottom=0;whiteSpace=wrap;html=1;fillColor=light-dark(#45C4E3,#198CC4);strokeColor=light-dark(#000000, #51afe7);swimlaneFillColor=default;fontColor=light-dark(#000000, #121212);fontFamily=Times New Roman;textShadow=0;gradientColor=none;" vertex="1" parent="1">
          <mxGeometry x="-97" y="-276" width="160" height="264" as="geometry">
            <mxRectangle x="512" y="131" width="167" height="26" as="alternateBounds" />
          </mxGeometry>
        </mxCell>
        <mxCell id="TjdgruIzrFf4UxmMu6ut-56" value="-MaGN&lt;div&gt;-NgayTao&lt;/div&gt;&lt;div&gt;-NgayGiaoNhan&lt;/div&gt;&lt;div&gt;-NguoiGiao&lt;/div&gt;&lt;div&gt;-NguoiNhan&lt;/div&gt;&lt;div&gt;-MaTS&lt;/div&gt;&lt;div&gt;-TenTS&lt;/div&gt;&lt;div&gt;-SoLuongTSCD&lt;/div&gt;&lt;div&gt;-TongGiaTri&lt;/div&gt;&lt;div&gt;-TinhTrangTSCD&lt;/div&gt;&lt;div&gt;-TrangThai&lt;/div&gt;" style="text;strokeColor=light-dark(#000000, #51afe7);fillColor=light-dark(#45C4E3,#198CC4);align=left;verticalAlign=top;spacingLeft=4;spacingRight=4;overflow=hidden;rotatable=0;points=[[0,0.5],[1,0.5]];portConstraint=eastwest;whiteSpace=wrap;html=1;swimlaneFillColor=default;fontColor=light-dark(#000000, #121212);fontFamily=Times New Roman;textShadow=0;gradientColor=none;" vertex="1" parent="TjdgruIzrFf4UxmMu6ut-55">
          <mxGeometry y="26" width="160" height="172" as="geometry" />
        </mxCell>
        <mxCell id="TjdgruIzrFf4UxmMu6ut-58" value="+ThemPhieu()&lt;div&gt;+LuuPhieu()&lt;/div&gt;&lt;div&gt;+XoaPhieu()&lt;/div&gt;&lt;div&gt;+InPhieu()&lt;/div&gt;&lt;div&gt;&lt;br&gt;&lt;/div&gt;" style="text;strokeColor=light-dark(#000000, #51afe7);fillColor=light-dark(#45C4E3,#198CC4);align=left;verticalAlign=top;spacingLeft=4;spacingRight=4;overflow=hidden;rotatable=0;points=[[0,0.5],[1,0.5]];portConstraint=eastwest;whiteSpace=wrap;html=1;swimlaneFillColor=default;fontColor=light-dark(#000000, #121212);fontFamily=Times New Roman;textShadow=0;gradientColor=none;" vertex="1" parent="TjdgruIzrFf4UxmMu6ut-55">
          <mxGeometry y="198" width="160" height="66" as="geometry" />
        </mxCell>
        <mxCell id="TjdgruIzrFf4UxmMu6ut-63" value="BienBanSuaChuaTSCD" style="swimlane;fontStyle=1;align=center;verticalAlign=top;childLayout=stackLayout;horizontal=1;startSize=26;horizontalStack=0;resizeParent=1;resizeParentMax=0;resizeLast=0;collapsible=1;marginBottom=0;whiteSpace=wrap;html=1;fillColor=light-dark(#45C4E3,#198CC4);strokeColor=light-dark(#000000, #51afe7);swimlaneFillColor=default;fontColor=light-dark(#000000, #121212);fontFamily=Times New Roman;textShadow=0;gradientColor=none;" vertex="1" parent="1">
          <mxGeometry x="167" y="-276" width="209" height="213" as="geometry" />
        </mxCell>
        <mxCell id="TjdgruIzrFf4UxmMu6ut-64" value="-MaSC&lt;div&gt;-NgayTao&lt;/div&gt;&lt;div&gt;-NgaySuaChua&lt;/div&gt;&lt;div&gt;-TinhTrangTruocSC&lt;/div&gt;&lt;div&gt;-TinhTrangSauSC&lt;/div&gt;&lt;div&gt;-ChiPhiSC&lt;/div&gt;&lt;div&gt;-LyDoSC&lt;/div&gt;&lt;div&gt;-TrangThai&lt;/div&gt;" style="text;strokeColor=light-dark(#000000, #51afe7);fillColor=light-dark(#45C4E3,#198CC4);align=left;verticalAlign=top;spacingLeft=4;spacingRight=4;overflow=hidden;rotatable=0;points=[[0,0.5],[1,0.5]];portConstraint=eastwest;whiteSpace=wrap;html=1;swimlaneFillColor=default;fontColor=light-dark(#000000, #121212);fontFamily=Times New Roman;textShadow=0;gradientColor=none;" vertex="1" parent="TjdgruIzrFf4UxmMu6ut-63">
          <mxGeometry y="26" width="209" height="121" as="geometry" />
        </mxCell>
        <mxCell id="TjdgruIzrFf4UxmMu6ut-104" value="+ThemPhieu()&lt;div&gt;+LuuPhieu()&lt;/div&gt;&lt;div&gt;+XoaPhieu()&lt;/div&gt;&lt;div&gt;+InPhieu()&lt;/div&gt;&lt;div&gt;&lt;br&gt;&lt;/div&gt;" style="text;strokeColor=light-dark(#000000, #51afe7);fillColor=light-dark(#45C4E3,#198CC4);align=left;verticalAlign=top;spacingLeft=4;spacingRight=4;overflow=hidden;rotatable=0;points=[[0,0.5],[1,0.5]];portConstraint=eastwest;whiteSpace=wrap;html=1;swimlaneFillColor=default;fontColor=light-dark(#000000, #121212);fontFamily=Times New Roman;textShadow=0;gradientColor=none;" vertex="1" parent="TjdgruIzrFf4UxmMu6ut-63">
          <mxGeometry y="147" width="209" height="66" as="geometry" />
        </mxCell>
        <mxCell id="TjdgruIzrFf4UxmMu6ut-68" value="BienBanThanhLyTSCD" style="swimlane;fontStyle=1;align=center;verticalAlign=top;childLayout=stackLayout;horizontal=1;startSize=26;horizontalStack=0;resizeParent=1;resizeParentMax=0;resizeLast=0;collapsible=1;marginBottom=0;whiteSpace=wrap;html=1;fillColor=light-dark(#45C4E3,#198CC4);strokeColor=light-dark(#000000, #51afe7);swimlaneFillColor=default;fontColor=light-dark(#000000, #121212);fontFamily=Times New Roman;textShadow=0;gradientColor=none;" vertex="1" parent="1">
          <mxGeometry x="533" y="-262" width="160" height="223" as="geometry" />
        </mxCell>
        <mxCell id="TjdgruIzrFf4UxmMu6ut-69" value="-MaTL&lt;div&gt;-&lt;span style=&quot;background-color: transparent;&quot;&gt;NgayTao&lt;/span&gt;&lt;/div&gt;&lt;div&gt;&lt;span style=&quot;background-color: transparent;&quot;&gt;-&lt;/span&gt;&lt;span style=&quot;background-color: transparent;&quot;&gt;NgayThanhLy&lt;/span&gt;&lt;/div&gt;&lt;div&gt;&lt;span style=&quot;background-color: transparent;&quot;&gt;-LyDoThanhLy&amp;nbsp;&lt;/span&gt;&lt;/div&gt;&lt;div&gt;&lt;span style=&quot;background-color: transparent;&quot;&gt;-DanhSachTSCDTL&amp;nbsp;&lt;/span&gt;&lt;/div&gt;&lt;div&gt;&lt;span style=&quot;background-color: transparent;&quot;&gt;-SoLuong&lt;/span&gt;&lt;/div&gt;&lt;div&gt;&lt;span style=&quot;background-color: transparent;&quot;&gt;-GiaTriTL&lt;/span&gt;&lt;/div&gt;&lt;div&gt;&lt;span style=&quot;background-color: transparent;&quot;&gt;-TrangThai&lt;/span&gt;&lt;/div&gt;" style="text;strokeColor=light-dark(#000000, #51afe7);fillColor=light-dark(#45C4E3,#198CC4);align=left;verticalAlign=top;spacingLeft=4;spacingRight=4;overflow=hidden;rotatable=0;points=[[0,0.5],[1,0.5]];portConstraint=eastwest;whiteSpace=wrap;html=1;swimlaneFillColor=default;fontColor=light-dark(#000000, #121212);fontFamily=Times New Roman;textShadow=0;gradientColor=none;" vertex="1" parent="TjdgruIzrFf4UxmMu6ut-68">
          <mxGeometry y="26" width="160" height="131" as="geometry" />
        </mxCell>
        <mxCell id="TjdgruIzrFf4UxmMu6ut-102" value="+ThemPhieu()&lt;div&gt;+LuuPhieu()&lt;/div&gt;&lt;div&gt;+XoaPhieu()&lt;/div&gt;&lt;div&gt;+InPhieu()&lt;/div&gt;&lt;div&gt;&lt;br&gt;&lt;/div&gt;" style="text;strokeColor=light-dark(#000000, #51afe7);fillColor=light-dark(#45C4E3,#198CC4);align=left;verticalAlign=top;spacingLeft=4;spacingRight=4;overflow=hidden;rotatable=0;points=[[0,0.5],[1,0.5]];portConstraint=eastwest;whiteSpace=wrap;html=1;swimlaneFillColor=default;fontColor=light-dark(#000000, #121212);fontFamily=Times New Roman;textShadow=0;gradientColor=none;" vertex="1" parent="TjdgruIzrFf4UxmMu6ut-68">
          <mxGeometry y="157" width="160" height="66" as="geometry" />
        </mxCell>
        <mxCell id="TjdgruIzrFf4UxmMu6ut-216" style="edgeStyle=orthogonalEdgeStyle;rounded=0;orthogonalLoop=1;jettySize=auto;html=1;exitX=0.75;exitY=0;exitDx=0;exitDy=0;entryX=0.5;entryY=0;entryDx=0;entryDy=0;" edge="1" parent="1" source="TjdgruIzrFf4UxmMu6ut-73" target="TjdgruIzrFf4UxmMu6ut-51">
          <mxGeometry relative="1" as="geometry">
            <Array as="points">
              <mxPoint x="23" y="22" />
              <mxPoint x="385" y="22" />
            </Array>
          </mxGeometry>
        </mxCell>
        <mxCell id="TjdgruIzrFf4UxmMu6ut-73" value="BienBanKiemKeTSCD" style="swimlane;fontStyle=1;align=center;verticalAlign=top;childLayout=stackLayout;horizontal=1;startSize=26;horizontalStack=0;resizeParent=1;resizeParentMax=0;resizeLast=0;collapsible=1;marginBottom=0;whiteSpace=wrap;html=1;fontFamily=Times New Roman;fillColor=light-dark(#45C4E3,#198CC4);fontColor=light-dark(#000000, #121212);strokeColor=light-dark(#000000, #51afe7);swimlaneFillColor=default;textShadow=0;gradientColor=none;" vertex="1" parent="1">
          <mxGeometry x="-106" y="148" width="161" height="235" as="geometry" />
        </mxCell>
        <mxCell id="TjdgruIzrFf4UxmMu6ut-74" value="-MaKK&lt;div&gt;-NgayTao&lt;/div&gt;&lt;div&gt;-NgayKiemKe&lt;/div&gt;&lt;div&gt;-MaHDKK&lt;/div&gt;&lt;div&gt;-DanhSachTSCD&lt;/div&gt;&lt;div&gt;-SoLuongTSCD&lt;/div&gt;&lt;div&gt;-GiaTri&lt;/div&gt;&lt;div&gt;-SaiLech&lt;/div&gt;&lt;div&gt;-TrangThai&lt;/div&gt;" style="text;strokeColor=light-dark(#000000, #51afe7);fillColor=light-dark(#45C4E3,#198CC4);align=left;verticalAlign=top;spacingLeft=4;spacingRight=4;overflow=hidden;rotatable=0;points=[[0,0.5],[1,0.5]];portConstraint=eastwest;whiteSpace=wrap;html=1;fontFamily=Times New Roman;fontColor=light-dark(#000000, #121212);swimlaneFillColor=default;textShadow=0;gradientColor=none;" vertex="1" parent="TjdgruIzrFf4UxmMu6ut-73">
          <mxGeometry y="26" width="161" height="140" as="geometry" />
        </mxCell>
        <mxCell id="TjdgruIzrFf4UxmMu6ut-103" value="+ThemPhieu()&lt;div&gt;+LuuPhieu()&lt;/div&gt;&lt;div&gt;+XoaPhieu()&lt;/div&gt;&lt;div&gt;+InPhieu()&lt;/div&gt;&lt;div&gt;&lt;br&gt;&lt;/div&gt;" style="text;strokeColor=light-dark(#000000, #51afe7);fillColor=light-dark(#45C4E3,#198CC4);align=left;verticalAlign=top;spacingLeft=4;spacingRight=4;overflow=hidden;rotatable=0;points=[[0,0.5],[1,0.5]];portConstraint=eastwest;whiteSpace=wrap;html=1;fontFamily=Times New Roman;fontColor=light-dark(#000000, #121212);swimlaneFillColor=default;textShadow=0;gradientColor=none;" vertex="1" parent="TjdgruIzrFf4UxmMu6ut-73">
          <mxGeometry y="166" width="161" height="69" as="geometry" />
        </mxCell>
        <mxCell id="TjdgruIzrFf4UxmMu6ut-86" value="HoiDongKiemKe" style="swimlane;fontStyle=1;childLayout=stackLayout;horizontal=1;startSize=26;fillColor=light-dark(#45C4E3,#198CC4);horizontalStack=0;resizeParent=1;resizeParentMax=0;resizeLast=0;collapsible=1;marginBottom=0;whiteSpace=wrap;html=1;strokeColor=light-dark(#000000, #51afe7);swimlaneFillColor=default;fontColor=light-dark(#000000, #121212);fontFamily=Times New Roman;textShadow=0;gradientColor=none;" vertex="1" parent="1">
          <mxGeometry x="-311" y="206" width="140" height="137" as="geometry" />
        </mxCell>
        <mxCell id="TjdgruIzrFf4UxmMu6ut-207" style="edgeStyle=orthogonalEdgeStyle;rounded=0;orthogonalLoop=1;jettySize=auto;html=1;exitX=1;exitY=0.5;exitDx=0;exitDy=0;" edge="1" parent="TjdgruIzrFf4UxmMu6ut-86" source="TjdgruIzrFf4UxmMu6ut-87">
          <mxGeometry relative="1" as="geometry">
            <mxPoint x="205.42857142857156" y="82.14285714285734" as="targetPoint" />
          </mxGeometry>
        </mxCell>
        <mxCell id="TjdgruIzrFf4UxmMu6ut-87" value="-MaHDKK&lt;div&gt;-TenHD&lt;/div&gt;&lt;div&gt;-NgayTao&lt;/div&gt;&lt;div&gt;-ThanhVien&lt;/div&gt;&lt;div&gt;-SoLuongTV&lt;/div&gt;&lt;div&gt;-MucTieuKK&lt;/div&gt;&lt;div&gt;&lt;span style=&quot;background-color: transparent;&quot;&gt;-TrangThai&lt;/span&gt;&lt;/div&gt;" style="text;strokeColor=light-dark(#000000, #51afe7);fillColor=light-dark(#45C4E3,#198CC4);align=left;verticalAlign=top;spacingLeft=4;spacingRight=4;overflow=hidden;rotatable=0;points=[[0,0.5],[1,0.5]];portConstraint=eastwest;whiteSpace=wrap;html=1;swimlaneFillColor=default;fontColor=light-dark(#000000, #121212);fontFamily=Times New Roman;textShadow=0;gradientColor=none;" vertex="1" parent="TjdgruIzrFf4UxmMu6ut-86">
          <mxGeometry y="26" width="140" height="111" as="geometry" />
        </mxCell>
        <mxCell id="TjdgruIzrFf4UxmMu6ut-91" value="BienBanDanhGiaLaiTSCD" style="swimlane;fontStyle=1;align=center;verticalAlign=top;childLayout=stackLayout;horizontal=1;startSize=26;horizontalStack=0;resizeParent=1;resizeParentMax=0;resizeLast=0;collapsible=1;marginBottom=0;whiteSpace=wrap;html=1;fillColor=light-dark(#45C4E3,#198CC4);strokeColor=light-dark(#000000, #51afe7);swimlaneFillColor=default;fontColor=light-dark(#000000, #121212);fontFamily=Times New Roman;textShadow=0;gradientColor=none;" vertex="1" parent="1">
          <mxGeometry x="822" y="-276" width="160" height="258" as="geometry" />
        </mxCell>
        <mxCell id="TjdgruIzrFf4UxmMu6ut-92" value="-MaDGL&lt;div&gt;-NgayTao&lt;/div&gt;&lt;div&gt;-NgayDanhGiaLai&lt;/div&gt;&lt;div&gt;-MaHDKK&lt;/div&gt;&lt;div&gt;-DanhSachTSCD&lt;/div&gt;&lt;div&gt;-SoLuongTSCD&lt;/div&gt;&lt;div&gt;-GiaTriDGL&lt;/div&gt;&lt;div&gt;-LyDoDGL&lt;/div&gt;&lt;div&gt;-TinhTrangTruocDGL&lt;/div&gt;&lt;div&gt;-TinhTrangSauDGL&lt;/div&gt;&lt;div&gt;&lt;span style=&quot;background-color: transparent;&quot;&gt;-TrangThai&lt;/span&gt;&lt;/div&gt;" style="text;strokeColor=light-dark(#000000, #51afe7);fillColor=light-dark(#45C4E3,#198CC4);align=left;verticalAlign=top;spacingLeft=4;spacingRight=4;overflow=hidden;rotatable=0;points=[[0,0.5],[1,0.5]];portConstraint=eastwest;whiteSpace=wrap;html=1;swimlaneFillColor=default;fontColor=light-dark(#000000, #121212);fontFamily=Times New Roman;textShadow=0;gradientColor=none;" vertex="1" parent="TjdgruIzrFf4UxmMu6ut-91">
          <mxGeometry y="26" width="160" height="166" as="geometry" />
        </mxCell>
        <mxCell id="TjdgruIzrFf4UxmMu6ut-101" value="+ThemPhieu()&lt;div&gt;+LuuPhieu()&lt;/div&gt;&lt;div&gt;+XoaPhieu()&lt;/div&gt;&lt;div&gt;+InPhieu()&lt;/div&gt;&lt;div&gt;&lt;br&gt;&lt;/div&gt;" style="text;strokeColor=light-dark(#000000, #51afe7);fillColor=light-dark(#45C4E3,#198CC4);align=left;verticalAlign=top;spacingLeft=4;spacingRight=4;overflow=hidden;rotatable=0;points=[[0,0.5],[1,0.5]];portConstraint=eastwest;whiteSpace=wrap;html=1;swimlaneFillColor=default;fontColor=light-dark(#000000, #121212);fontFamily=Times New Roman;textShadow=0;gradientColor=none;" vertex="1" parent="TjdgruIzrFf4UxmMu6ut-91">
          <mxGeometry y="192" width="160" height="66" as="geometry" />
        </mxCell>
        <mxCell id="TjdgruIzrFf4UxmMu6ut-96" value="PhieuDieuChuyenTSCD:" style="swimlane;fontStyle=1;align=center;verticalAlign=top;childLayout=stackLayout;horizontal=1;startSize=26;horizontalStack=0;resizeParent=1;resizeParentMax=0;resizeLast=0;collapsible=1;marginBottom=0;whiteSpace=wrap;html=1;fillColor=light-dark(#45C4E3,#198CC4);strokeColor=light-dark(#000000, #51afe7);swimlaneFillColor=default;fontColor=light-dark(#000000, #121212);fontFamily=Times New Roman;textShadow=0;gradientColor=none;" vertex="1" parent="1">
          <mxGeometry x="1070" y="223" width="160" height="254" as="geometry" />
        </mxCell>
        <mxCell id="TjdgruIzrFf4UxmMu6ut-97" value="-MaDC&lt;div&gt;-NgayTao&lt;/div&gt;&lt;div&gt;-NgayDieuChuyen&lt;/div&gt;&lt;div&gt;-BoPhanCu&lt;/div&gt;&lt;div&gt;-BoPhanMoi&lt;/div&gt;&lt;div&gt;-DanhSachTSCD&lt;/div&gt;&lt;div&gt;-SoLuong&lt;/div&gt;&lt;div&gt;-GiaTriTSCD&lt;/div&gt;&lt;div&gt;-LyDoDC&lt;/div&gt;&lt;div&gt;-TrangThai&lt;/div&gt;" style="text;strokeColor=light-dark(#000000, #51afe7);fillColor=light-dark(#45C4E3,#198CC4);align=left;verticalAlign=top;spacingLeft=4;spacingRight=4;overflow=hidden;rotatable=0;points=[[0,0.5],[1,0.5]];portConstraint=eastwest;whiteSpace=wrap;html=1;swimlaneFillColor=default;fontColor=light-dark(#000000, #121212);fontFamily=Times New Roman;textShadow=0;gradientColor=none;" vertex="1" parent="TjdgruIzrFf4UxmMu6ut-96">
          <mxGeometry y="26" width="160" height="162" as="geometry" />
        </mxCell>
        <mxCell id="TjdgruIzrFf4UxmMu6ut-105" value="+ThemPhieu()&lt;div&gt;+LuuPhieu()&lt;/div&gt;&lt;div&gt;+XoaPhieu()&lt;/div&gt;&lt;div&gt;+InPhieu()&lt;/div&gt;&lt;div&gt;&lt;br&gt;&lt;/div&gt;" style="text;strokeColor=light-dark(#000000, #51afe7);fillColor=light-dark(#45C4E3,#198CC4);align=left;verticalAlign=top;spacingLeft=4;spacingRight=4;overflow=hidden;rotatable=0;points=[[0,0.5],[1,0.5]];portConstraint=eastwest;whiteSpace=wrap;html=1;swimlaneFillColor=default;fontColor=light-dark(#000000, #121212);fontFamily=Times New Roman;textShadow=0;gradientColor=none;" vertex="1" parent="TjdgruIzrFf4UxmMu6ut-96">
          <mxGeometry y="188" width="160" height="66" as="geometry" />
        </mxCell>
        <mxCell id="TjdgruIzrFf4UxmMu6ut-106" value="BaoCaoTangGiamTSCD:" style="swimlane;fontStyle=1;align=center;verticalAlign=top;childLayout=stackLayout;horizontal=1;startSize=26;horizontalStack=0;resizeParent=1;resizeParentMax=0;resizeLast=0;collapsible=1;marginBottom=0;whiteSpace=wrap;html=1;fillColor=light-dark(#45C4E3,#198CC4);strokeColor=light-dark(#000000, #51afe7);swimlaneFillColor=default;fontColor=light-dark(#000000, #121212);fontFamily=Times New Roman;textShadow=0;gradientColor=none;" vertex="1" parent="1">
          <mxGeometry x="894" y="126" width="160" height="304" as="geometry" />
        </mxCell>
        <mxCell id="TjdgruIzrFf4UxmMu6ut-107" value="-MaTG&lt;div&gt;-NgayTao&lt;/div&gt;&lt;div&gt;-NgayBatDau&lt;/div&gt;&lt;div&gt;-NgayKetThuc&lt;/div&gt;&lt;div&gt;-SoDauKy&lt;/div&gt;&lt;div&gt;-SoTangTrongKy&lt;/div&gt;&lt;div&gt;-SoGiamTrongKy&lt;/div&gt;&lt;div&gt;-SoCuoiKy&lt;/div&gt;&lt;div&gt;-MuaMoi&lt;/div&gt;&lt;div&gt;-TangNG&lt;/div&gt;&lt;div&gt;-ThanhLy&lt;/div&gt;&lt;div&gt;-HaoMon&lt;/div&gt;&lt;div&gt;-GTCL&lt;/div&gt;&lt;div&gt;-TrangThai&lt;/div&gt;" style="text;strokeColor=light-dark(#000000, #51afe7);fillColor=light-dark(#45C4E3,#198CC4);align=left;verticalAlign=top;spacingLeft=4;spacingRight=4;overflow=hidden;rotatable=0;points=[[0,0.5],[1,0.5]];portConstraint=eastwest;whiteSpace=wrap;html=1;swimlaneFillColor=default;fontColor=light-dark(#000000, #121212);fontFamily=Times New Roman;textShadow=0;gradientColor=none;" vertex="1" parent="TjdgruIzrFf4UxmMu6ut-106">
          <mxGeometry y="26" width="160" height="212" as="geometry" />
        </mxCell>
        <mxCell id="TjdgruIzrFf4UxmMu6ut-110" value="+ThemPhieu()&lt;div&gt;+LuuPhieu()&lt;/div&gt;&lt;div&gt;+XoaPhieu()&lt;/div&gt;&lt;div&gt;+InPhieu()&lt;/div&gt;&lt;div&gt;&lt;br&gt;&lt;/div&gt;" style="text;strokeColor=light-dark(#000000, #51afe7);fillColor=light-dark(#45C4E3,#198CC4);align=left;verticalAlign=top;spacingLeft=4;spacingRight=4;overflow=hidden;rotatable=0;points=[[0,0.5],[1,0.5]];portConstraint=eastwest;whiteSpace=wrap;html=1;swimlaneFillColor=default;fontColor=light-dark(#000000, #121212);fontFamily=Times New Roman;textShadow=0;gradientColor=none;" vertex="1" parent="TjdgruIzrFf4UxmMu6ut-106">
          <mxGeometry y="238" width="160" height="66" as="geometry" />
        </mxCell>
        <mxCell id="TjdgruIzrFf4UxmMu6ut-111" value="BaoCaoKiemKeTSCD:" style="swimlane;fontStyle=1;align=center;verticalAlign=top;childLayout=stackLayout;horizontal=1;startSize=26;horizontalStack=0;resizeParent=1;resizeParentMax=0;resizeLast=0;collapsible=1;marginBottom=0;whiteSpace=wrap;html=1;fillColor=light-dark(#45C4E3,#198CC4);strokeColor=light-dark(#000000, #51afe7);swimlaneFillColor=default;fontColor=light-dark(#000000, #121212);fontFamily=Times New Roman;textShadow=0;gradientColor=none;" vertex="1" parent="1">
          <mxGeometry x="98" y="139" width="160" height="233" as="geometry" />
        </mxCell>
        <mxCell id="TjdgruIzrFf4UxmMu6ut-112" value="-MaKK&lt;div&gt;-NgayTao&lt;/div&gt;&lt;div&gt;-NgayKiemKe&lt;/div&gt;&lt;div&gt;-MaHDKK&lt;/div&gt;&lt;div&gt;-DanhSachTSCD&lt;/div&gt;&lt;div&gt;-SoLuongTSCD&lt;/div&gt;&lt;div&gt;-GiaTri&lt;/div&gt;&lt;div&gt;-SaiLech&lt;/div&gt;&lt;div&gt;-TrangThai&lt;/div&gt;" style="text;strokeColor=light-dark(#000000, #51afe7);fillColor=light-dark(#45C4E3,#198CC4);align=left;verticalAlign=top;spacingLeft=4;spacingRight=4;overflow=hidden;rotatable=0;points=[[0,0.5],[1,0.5]];portConstraint=eastwest;whiteSpace=wrap;html=1;swimlaneFillColor=default;fontColor=light-dark(#000000, #121212);fontFamily=Times New Roman;textShadow=0;gradientColor=none;" vertex="1" parent="TjdgruIzrFf4UxmMu6ut-111">
          <mxGeometry y="26" width="160" height="141" as="geometry" />
        </mxCell>
        <mxCell id="TjdgruIzrFf4UxmMu6ut-115" value="+ThemPhieu()&lt;div&gt;+LuuPhieu()&lt;/div&gt;&lt;div&gt;+XoaPhieu()&lt;/div&gt;&lt;div&gt;+InPhieu()&lt;/div&gt;&lt;div&gt;&lt;br&gt;&lt;/div&gt;" style="text;strokeColor=light-dark(#000000, #51afe7);fillColor=light-dark(#45C4E3,#198CC4);align=left;verticalAlign=top;spacingLeft=4;spacingRight=4;overflow=hidden;rotatable=0;points=[[0,0.5],[1,0.5]];portConstraint=eastwest;whiteSpace=wrap;html=1;swimlaneFillColor=default;fontColor=light-dark(#000000, #121212);fontFamily=Times New Roman;textShadow=0;gradientColor=none;" vertex="1" parent="TjdgruIzrFf4UxmMu6ut-111">
          <mxGeometry y="167" width="160" height="66" as="geometry" />
        </mxCell>
        <mxCell id="TjdgruIzrFf4UxmMu6ut-122" value="SoTSCD:" style="swimlane;fontStyle=1;align=center;verticalAlign=top;childLayout=stackLayout;horizontal=1;startSize=26;horizontalStack=0;resizeParent=1;resizeParentMax=0;resizeLast=0;collapsible=1;marginBottom=0;whiteSpace=wrap;html=1;fillColor=light-dark(#45C4E3,#198CC4);strokeColor=light-dark(#000000, #51afe7);swimlaneFillColor=default;fontColor=light-dark(#000000, #121212);fontFamily=Times New Roman;textShadow=0;gradientColor=none;" vertex="1" parent="1">
          <mxGeometry x="1070" y="-219" width="160" height="301" as="geometry" />
        </mxCell>
        <mxCell id="TjdgruIzrFf4UxmMu6ut-123" value="-MaSoTSCD&lt;div&gt;-MaTS&lt;/div&gt;&lt;div&gt;-TenTS&lt;/div&gt;&lt;div&gt;-NgayTao&lt;/div&gt;&lt;div&gt;-NG&lt;/div&gt;&lt;div&gt;-GhiTangTSCD&lt;/div&gt;&lt;div&gt;-GhiGiamTSCD&lt;/div&gt;&lt;div&gt;-KhauHao&lt;/div&gt;&lt;div&gt;-TyLeKH&lt;/div&gt;&lt;div&gt;&lt;span style=&quot;background-color: transparent;&quot;&gt;-MucKH&lt;/span&gt;&lt;/div&gt;&lt;div&gt;&lt;span style=&quot;background-color: transparent;&quot;&gt;-GTCL&lt;/span&gt;&lt;/div&gt;&lt;div&gt;&lt;span style=&quot;background-color: transparent;&quot;&gt;-ChungTu&lt;/span&gt;&lt;/div&gt;&lt;div&gt;&lt;span style=&quot;background-color: transparent;&quot;&gt;-LyDoGiamTSCD&lt;/span&gt;&lt;/div&gt;" style="text;strokeColor=light-dark(#000000, #51afe7);fillColor=light-dark(#45C4E3,#198CC4);align=left;verticalAlign=top;spacingLeft=4;spacingRight=4;overflow=hidden;rotatable=0;points=[[0,0.5],[1,0.5]];portConstraint=eastwest;whiteSpace=wrap;html=1;swimlaneFillColor=default;fontColor=light-dark(#000000, #121212);fontFamily=Times New Roman;textShadow=0;gradientColor=none;" vertex="1" parent="TjdgruIzrFf4UxmMu6ut-122">
          <mxGeometry y="26" width="160" height="209" as="geometry" />
        </mxCell>
        <mxCell id="TjdgruIzrFf4UxmMu6ut-126" value="+ThemPhieu()&lt;div&gt;+LuuPhieu()&lt;/div&gt;&lt;div&gt;+XoaPhieu()&lt;/div&gt;&lt;div&gt;+InPhieu()&lt;/div&gt;&lt;div&gt;&lt;br&gt;&lt;/div&gt;" style="text;strokeColor=light-dark(#000000, #51afe7);fillColor=light-dark(#45C4E3,#198CC4);align=left;verticalAlign=top;spacingLeft=4;spacingRight=4;overflow=hidden;rotatable=0;points=[[0,0.5],[1,0.5]];portConstraint=eastwest;whiteSpace=wrap;html=1;swimlaneFillColor=default;fontColor=light-dark(#000000, #121212);fontFamily=Times New Roman;textShadow=0;gradientColor=none;" vertex="1" parent="TjdgruIzrFf4UxmMu6ut-122">
          <mxGeometry y="235" width="160" height="66" as="geometry" />
        </mxCell>
        <mxCell id="TjdgruIzrFf4UxmMu6ut-127" value="BangTinhVaPhanBoKHTSCD:" style="swimlane;fontStyle=1;align=center;verticalAlign=top;childLayout=stackLayout;horizontal=1;startSize=26;horizontalStack=0;resizeParent=1;resizeParentMax=0;resizeLast=0;collapsible=1;marginBottom=0;whiteSpace=wrap;html=1;fillColor=light-dark(#45C4E3,#198CC4);strokeColor=light-dark(#000000, #51afe7);swimlaneFillColor=default;fontColor=light-dark(#000000, #121212);fontFamily=Times New Roman;textShadow=0;gradientColor=none;" vertex="1" parent="1">
          <mxGeometry x="-303" y="-131" width="175" height="276" as="geometry" />
        </mxCell>
        <mxCell id="TjdgruIzrFf4UxmMu6ut-128" value="-&lt;span style=&quot;background-color: transparent;&quot;&gt;MaBang&lt;/span&gt;&lt;div&gt;&lt;span style=&quot;background-color: transparent;&quot;&gt;-NgayTao&lt;/span&gt;&lt;/div&gt;&lt;div&gt;&lt;span style=&quot;background-color: transparent;&quot;&gt;-SoDauKy&lt;/span&gt;&lt;/div&gt;&lt;div&gt;&lt;span style=&quot;background-color: transparent;&quot;&gt;-SoTangTrongKy&amp;nbsp;&lt;/span&gt;&lt;/div&gt;&lt;div&gt;&lt;span style=&quot;background-color: transparent;&quot;&gt;-SoGiamTrongKy&lt;/span&gt;&lt;/div&gt;&lt;div&gt;&lt;span style=&quot;background-color: transparent;&quot;&gt;-SoCuoiKy&lt;/span&gt;&lt;/div&gt;&lt;div&gt;&lt;span style=&quot;background-color: transparent;&quot;&gt;-NGTSCD&lt;/span&gt;&lt;/div&gt;&lt;div&gt;&lt;span style=&quot;background-color: transparent;&quot;&gt;-KhauHao&lt;/span&gt;&lt;/div&gt;&lt;div&gt;&lt;span style=&quot;background-color: transparent;&quot;&gt;-TyleKH&lt;/span&gt;&lt;/div&gt;&lt;div&gt;&lt;span style=&quot;background-color: transparent;&quot;&gt;-MucKH&lt;/span&gt;&lt;/div&gt;&lt;div&gt;&lt;span style=&quot;background-color: transparent;&quot;&gt;-GTCL&lt;/span&gt;&lt;/div&gt;&lt;div&gt;&lt;span style=&quot;background-color: transparent;&quot;&gt;-LyDoGiamTSCD&lt;/span&gt;&lt;/div&gt;" style="text;strokeColor=light-dark(#000000, #51afe7);fillColor=light-dark(#45C4E3,#198CC4);align=left;verticalAlign=top;spacingLeft=4;spacingRight=4;overflow=hidden;rotatable=0;points=[[0,0.5],[1,0.5]];portConstraint=eastwest;whiteSpace=wrap;html=1;swimlaneFillColor=default;fontColor=light-dark(#000000, #121212);fontFamily=Times New Roman;textShadow=0;gradientColor=none;" vertex="1" parent="TjdgruIzrFf4UxmMu6ut-127">
          <mxGeometry y="26" width="175" height="184" as="geometry" />
        </mxCell>
        <mxCell id="TjdgruIzrFf4UxmMu6ut-131" value="+ThemPhieu()&lt;div&gt;+LuuPhieu()&lt;/div&gt;&lt;div&gt;+XoaPhieu()&lt;/div&gt;&lt;div&gt;+InPhieu()&lt;/div&gt;&lt;div&gt;&lt;br&gt;&lt;/div&gt;" style="text;strokeColor=light-dark(#000000, #51afe7);fillColor=light-dark(#45C4E3,#198CC4);align=left;verticalAlign=top;spacingLeft=4;spacingRight=4;overflow=hidden;rotatable=0;points=[[0,0.5],[1,0.5]];portConstraint=eastwest;whiteSpace=wrap;html=1;swimlaneFillColor=default;fontColor=light-dark(#000000, #121212);fontFamily=Times New Roman;textShadow=0;gradientColor=none;" vertex="1" parent="TjdgruIzrFf4UxmMu6ut-127">
          <mxGeometry y="210" width="175" height="66" as="geometry" />
        </mxCell>
        <mxCell id="TjdgruIzrFf4UxmMu6ut-117" value="BaoCaoDanhGiaLaiTSCD:" style="swimlane;fontStyle=1;align=center;verticalAlign=top;childLayout=stackLayout;horizontal=1;startSize=24;horizontalStack=0;resizeParent=1;resizeParentMax=0;resizeLast=0;collapsible=1;marginBottom=0;whiteSpace=wrap;html=1;fillColor=light-dark(#45C4E3,#198CC4);strokeColor=light-dark(#000000, #51afe7);swimlaneFillColor=default;fontColor=light-dark(#000000, #121212);fontFamily=Times New Roman;textShadow=0;gradientColor=none;" vertex="1" parent="1">
          <mxGeometry x="492" y="157" width="160" height="259" as="geometry" />
        </mxCell>
        <mxCell id="TjdgruIzrFf4UxmMu6ut-118" value="-MaDGL&lt;div&gt;-NgayTao&lt;/div&gt;&lt;div&gt;-NgayDanhGiaLai&lt;/div&gt;&lt;div&gt;-MaHDKK&lt;/div&gt;&lt;div&gt;-DanhSachTSCD&lt;/div&gt;&lt;div&gt;-SoLuongTSCD&lt;/div&gt;&lt;div&gt;-GiaTriDGL&lt;/div&gt;&lt;div&gt;-LyDoDGL&lt;/div&gt;&lt;div&gt;-TinhTrangTruocDGL&lt;/div&gt;&lt;div&gt;&lt;span style=&quot;background-color: transparent;&quot;&gt;-TinhTrangSauDGL&lt;/span&gt;&lt;/div&gt;&lt;div&gt;&lt;span style=&quot;background-color: transparent;&quot;&gt;-TrangThai&lt;/span&gt;&lt;/div&gt;" style="text;strokeColor=light-dark(#000000, #51afe7);fillColor=light-dark(#45C4E3,#198CC4);align=left;verticalAlign=top;spacingLeft=4;spacingRight=4;overflow=hidden;rotatable=0;points=[[0,0.5],[1,0.5]];portConstraint=eastwest;whiteSpace=wrap;html=1;swimlaneFillColor=default;fontColor=light-dark(#000000, #121212);fontFamily=Times New Roman;textShadow=0;gradientColor=none;" vertex="1" parent="TjdgruIzrFf4UxmMu6ut-117">
          <mxGeometry y="24" width="160" height="169" as="geometry" />
        </mxCell>
        <mxCell id="TjdgruIzrFf4UxmMu6ut-121" value="+ThemPhieu()&lt;div&gt;+LuuPhieu()&lt;/div&gt;&lt;div&gt;+XoaPhieu()&lt;/div&gt;&lt;div&gt;+InPhieu()&lt;/div&gt;&lt;div&gt;&lt;br&gt;&lt;/div&gt;" style="text;strokeColor=light-dark(#000000, #51afe7);fillColor=light-dark(#45C4E3,#198CC4);align=left;verticalAlign=top;spacingLeft=4;spacingRight=4;overflow=hidden;rotatable=0;points=[[0,0.5],[1,0.5]];portConstraint=eastwest;whiteSpace=wrap;html=1;swimlaneFillColor=default;fontColor=light-dark(#000000, #121212);fontFamily=Times New Roman;textShadow=0;gradientColor=none;" vertex="1" parent="TjdgruIzrFf4UxmMu6ut-117">
          <mxGeometry y="193" width="160" height="66" as="geometry" />
        </mxCell>
        <mxCell id="TjdgruIzrFf4UxmMu6ut-189" style="edgeStyle=orthogonalEdgeStyle;rounded=0;orthogonalLoop=1;jettySize=auto;html=1;exitX=0;exitY=0.5;exitDx=0;exitDy=0;entryX=0.987;entryY=0.794;entryDx=0;entryDy=0;entryPerimeter=0;" edge="1" parent="1" source="TjdgruIzrFf4UxmMu6ut-38" target="TjdgruIzrFf4UxmMu6ut-118">
          <mxGeometry relative="1" as="geometry">
            <Array as="points">
              <mxPoint x="665" y="80" />
              <mxPoint x="665" y="219" />
              <mxPoint x="685" y="219" />
              <mxPoint x="685" y="315" />
            </Array>
          </mxGeometry>
        </mxCell>
        <mxCell id="TjdgruIzrFf4UxmMu6ut-190" style="edgeStyle=orthogonalEdgeStyle;rounded=0;orthogonalLoop=1;jettySize=auto;html=1;exitX=1;exitY=0.25;exitDx=0;exitDy=0;entryX=0.004;entryY=0.207;entryDx=0;entryDy=0;entryPerimeter=0;" edge="1" parent="1" source="TjdgruIzrFf4UxmMu6ut-38" target="TjdgruIzrFf4UxmMu6ut-107">
          <mxGeometry relative="1" as="geometry">
            <Array as="points">
              <mxPoint x="847" y="52" />
              <mxPoint x="847" y="196" />
            </Array>
          </mxGeometry>
        </mxCell>
        <mxCell id="TjdgruIzrFf4UxmMu6ut-191" style="edgeStyle=orthogonalEdgeStyle;rounded=0;orthogonalLoop=1;jettySize=auto;html=1;exitX=0.5;exitY=1;exitDx=0;exitDy=0;entryX=0.529;entryY=1.008;entryDx=0;entryDy=0;entryPerimeter=0;" edge="1" parent="1" source="TjdgruIzrFf4UxmMu6ut-38" target="TjdgruIzrFf4UxmMu6ut-105">
          <mxGeometry relative="1" as="geometry">
            <Array as="points">
              <mxPoint x="755" y="517" />
              <mxPoint x="1155" y="517" />
            </Array>
          </mxGeometry>
        </mxCell>
        <mxCell id="TjdgruIzrFf4UxmMu6ut-198" style="edgeStyle=orthogonalEdgeStyle;rounded=0;orthogonalLoop=1;jettySize=auto;html=1;entryX=0.739;entryY=0.986;entryDx=0;entryDy=0;entryPerimeter=0;" edge="1" parent="1" target="TjdgruIzrFf4UxmMu6ut-103">
          <mxGeometry relative="1" as="geometry">
            <mxPoint x="719" y="140" as="sourcePoint" />
            <mxPoint x="13" y="392" as="targetPoint" />
            <Array as="points">
              <mxPoint x="719" y="443" />
              <mxPoint x="13" y="443" />
            </Array>
          </mxGeometry>
        </mxCell>
        <mxCell id="TjdgruIzrFf4UxmMu6ut-201" style="edgeStyle=orthogonalEdgeStyle;rounded=0;orthogonalLoop=1;jettySize=auto;html=1;exitX=0;exitY=0.5;exitDx=0;exitDy=0;entryX=0;entryY=0.5;entryDx=0;entryDy=0;" edge="1" parent="1" source="TjdgruIzrFf4UxmMu6ut-33" target="TjdgruIzrFf4UxmMu6ut-87">
          <mxGeometry relative="1" as="geometry" />
        </mxCell>
        <mxCell id="TjdgruIzrFf4UxmMu6ut-204" style="edgeStyle=orthogonalEdgeStyle;rounded=0;orthogonalLoop=1;jettySize=auto;html=1;exitX=1;exitY=0.5;exitDx=0;exitDy=0;entryX=0.25;entryY=0;entryDx=0;entryDy=0;" edge="1" parent="1" source="TjdgruIzrFf4UxmMu6ut-58" target="TjdgruIzrFf4UxmMu6ut-51">
          <mxGeometry relative="1" as="geometry">
            <Array as="points">
              <mxPoint x="189" y="-38" />
              <mxPoint x="345" y="-38" />
            </Array>
          </mxGeometry>
        </mxCell>
        <mxCell id="TjdgruIzrFf4UxmMu6ut-205" style="edgeStyle=orthogonalEdgeStyle;rounded=0;orthogonalLoop=1;jettySize=auto;html=1;exitX=1;exitY=0.5;exitDx=0;exitDy=0;" edge="1" parent="1" source="TjdgruIzrFf4UxmMu6ut-112" target="TjdgruIzrFf4UxmMu6ut-52">
          <mxGeometry relative="1" as="geometry" />
        </mxCell>
        <mxCell id="TjdgruIzrFf4UxmMu6ut-206" style="edgeStyle=orthogonalEdgeStyle;rounded=0;orthogonalLoop=1;jettySize=auto;html=1;exitX=1;exitY=0.5;exitDx=0;exitDy=0;" edge="1" parent="1" source="TjdgruIzrFf4UxmMu6ut-103" target="TjdgruIzrFf4UxmMu6ut-54">
          <mxGeometry relative="1" as="geometry">
            <Array as="points">
              <mxPoint x="63" y="297" />
            </Array>
          </mxGeometry>
        </mxCell>
        <mxCell id="TjdgruIzrFf4UxmMu6ut-209" style="edgeStyle=orthogonalEdgeStyle;rounded=0;orthogonalLoop=1;jettySize=auto;html=1;entryX=0.529;entryY=1.005;entryDx=0;entryDy=0;entryPerimeter=0;" edge="1" parent="1" source="TjdgruIzrFf4UxmMu6ut-86" target="TjdgruIzrFf4UxmMu6ut-115">
          <mxGeometry relative="1" as="geometry">
            <Array as="points">
              <mxPoint x="-241" y="409" />
              <mxPoint x="183" y="409" />
            </Array>
          </mxGeometry>
        </mxCell>
        <mxCell id="TjdgruIzrFf4UxmMu6ut-213" style="edgeStyle=orthogonalEdgeStyle;rounded=0;orthogonalLoop=1;jettySize=auto;html=1;exitX=0;exitY=0.25;exitDx=0;exitDy=0;entryX=1;entryY=0.5;entryDx=0;entryDy=0;" edge="1" parent="1" source="TjdgruIzrFf4UxmMu6ut-38" target="TjdgruIzrFf4UxmMu6ut-64">
          <mxGeometry relative="1" as="geometry">
            <mxPoint x="471.6666666666665" y="-113" as="targetPoint" />
            <Array as="points">
              <mxPoint x="521" y="52" />
              <mxPoint x="521" y="-189" />
            </Array>
          </mxGeometry>
        </mxCell>
        <mxCell id="TjdgruIzrFf4UxmMu6ut-214" style="edgeStyle=orthogonalEdgeStyle;rounded=0;orthogonalLoop=1;jettySize=auto;html=1;exitX=0.25;exitY=1;exitDx=0;exitDy=0;" edge="1" parent="1" source="TjdgruIzrFf4UxmMu6ut-38">
          <mxGeometry relative="1" as="geometry">
            <mxPoint x="204" y="377" as="targetPoint" />
            <Array as="points">
              <mxPoint x="736" y="136" />
              <mxPoint x="736" y="436" />
              <mxPoint x="204" y="436" />
            </Array>
          </mxGeometry>
        </mxCell>
        <mxCell id="TjdgruIzrFf4UxmMu6ut-215" style="edgeStyle=orthogonalEdgeStyle;rounded=0;orthogonalLoop=1;jettySize=auto;html=1;entryX=0.244;entryY=1.035;entryDx=0;entryDy=0;entryPerimeter=0;" edge="1" parent="1" source="TjdgruIzrFf4UxmMu6ut-86" target="TjdgruIzrFf4UxmMu6ut-101">
          <mxGeometry relative="1" as="geometry">
            <Array as="points">
              <mxPoint x="-259" y="464" />
              <mxPoint x="861" y="464" />
            </Array>
          </mxGeometry>
        </mxCell>
        <mxCell id="TjdgruIzrFf4UxmMu6ut-217" style="edgeStyle=orthogonalEdgeStyle;rounded=0;orthogonalLoop=1;jettySize=auto;html=1;exitX=1;exitY=0.5;exitDx=0;exitDy=0;entryX=0;entryY=0;entryDx=0;entryDy=0;" edge="1" parent="1" source="TjdgruIzrFf4UxmMu6ut-128" target="TjdgruIzrFf4UxmMu6ut-51">
          <mxGeometry relative="1" as="geometry">
            <Array as="points">
              <mxPoint x="-128" y="50" />
              <mxPoint x="306" y="50" />
              <mxPoint x="306" y="166" />
            </Array>
          </mxGeometry>
        </mxCell>
        <mxCell id="TjdgruIzrFf4UxmMu6ut-220" style="edgeStyle=orthogonalEdgeStyle;rounded=0;orthogonalLoop=1;jettySize=auto;html=1;exitX=0;exitY=0.5;exitDx=0;exitDy=0;entryX=1;entryY=0.5;entryDx=0;entryDy=0;" edge="1" parent="1" source="TjdgruIzrFf4UxmMu6ut-118" target="TjdgruIzrFf4UxmMu6ut-52">
          <mxGeometry relative="1" as="geometry" />
        </mxCell>
        <mxCell id="TjdgruIzrFf4UxmMu6ut-224" style="edgeStyle=orthogonalEdgeStyle;rounded=0;orthogonalLoop=1;jettySize=auto;html=1;entryX=0.373;entryY=0.018;entryDx=0;entryDy=0;entryPerimeter=0;" edge="1" parent="1" source="TjdgruIzrFf4UxmMu6ut-63" target="TjdgruIzrFf4UxmMu6ut-51">
          <mxGeometry relative="1" as="geometry" />
        </mxCell>
        <mxCell id="TjdgruIzrFf4UxmMu6ut-230" style="edgeStyle=orthogonalEdgeStyle;rounded=0;orthogonalLoop=1;jettySize=auto;html=1;entryX=0.984;entryY=0.353;entryDx=0;entryDy=0;entryPerimeter=0;" edge="1" parent="1" source="TjdgruIzrFf4UxmMu6ut-102" target="TjdgruIzrFf4UxmMu6ut-52">
          <mxGeometry relative="1" as="geometry">
            <Array as="points">
              <mxPoint x="476" y="-80" />
              <mxPoint x="476" y="246" />
            </Array>
          </mxGeometry>
        </mxCell>
        <mxCell id="TjdgruIzrFf4UxmMu6ut-231" style="edgeStyle=orthogonalEdgeStyle;rounded=0;orthogonalLoop=1;jettySize=auto;html=1;entryX=0.688;entryY=1.038;entryDx=0;entryDy=0;entryPerimeter=0;" edge="1" parent="1" source="TjdgruIzrFf4UxmMu6ut-96" target="TjdgruIzrFf4UxmMu6ut-54">
          <mxGeometry relative="1" as="geometry">
            <Array as="points">
              <mxPoint x="398" y="450" />
            </Array>
          </mxGeometry>
        </mxCell>
        <mxCell id="TjdgruIzrFf4UxmMu6ut-234" style="edgeStyle=orthogonalEdgeStyle;rounded=0;orthogonalLoop=1;jettySize=auto;html=1;entryX=1.004;entryY=0.965;entryDx=0;entryDy=0;entryPerimeter=0;exitX=1;exitY=0.5;exitDx=0;exitDy=0;" edge="1" parent="1" source="TjdgruIzrFf4UxmMu6ut-123" target="TjdgruIzrFf4UxmMu6ut-121">
          <mxGeometry relative="1" as="geometry">
            <Array as="points">
              <mxPoint x="1250" y="-88" />
              <mxPoint x="1250" y="490" />
              <mxPoint x="653" y="490" />
            </Array>
          </mxGeometry>
        </mxCell>
        <mxCell id="TjdgruIzrFf4UxmMu6ut-235" style="edgeStyle=orthogonalEdgeStyle;rounded=0;orthogonalLoop=1;jettySize=auto;html=1;exitX=0;exitY=0;exitDx=0;exitDy=0;entryX=1.025;entryY=0.583;entryDx=0;entryDy=0;entryPerimeter=0;" edge="1" parent="1" source="TjdgruIzrFf4UxmMu6ut-34" target="TjdgruIzrFf4UxmMu6ut-128">
          <mxGeometry relative="1" as="geometry">
            <Array as="points">
              <mxPoint x="685" y="-16" />
              <mxPoint x="278" y="-16" />
              <mxPoint x="278" y="2" />
            </Array>
          </mxGeometry>
        </mxCell>
        <mxCell id="TjdgruIzrFf4UxmMu6ut-238" style="edgeStyle=orthogonalEdgeStyle;rounded=0;orthogonalLoop=1;jettySize=auto;html=1;entryX=0.25;entryY=0.995;entryDx=0;entryDy=0;entryPerimeter=0;" edge="1" parent="1" source="TjdgruIzrFf4UxmMu6ut-106" target="TjdgruIzrFf4UxmMu6ut-54">
          <mxGeometry relative="1" as="geometry" />
        </mxCell>
        <mxCell id="TjdgruIzrFf4UxmMu6ut-240" value="1" style="text;html=1;align=center;verticalAlign=middle;resizable=0;points=[];autosize=1;strokeColor=none;fillColor=none;" vertex="1" parent="1">
          <mxGeometry x="-226" y="-299" width="25" height="26" as="geometry" />
        </mxCell>
        <mxCell id="TjdgruIzrFf4UxmMu6ut-241" value="1" style="text;html=1;align=center;verticalAlign=middle;resizable=0;points=[];autosize=1;strokeColor=none;fillColor=none;" vertex="1" parent="1">
          <mxGeometry x="732" y="-31" width="25" height="26" as="geometry" />
        </mxCell>
      </root>
    </mxGraphModel>
  </diagram>
</mxfile>
